<svg xmlns="http://www.w3.org/2000/svg" xmlns:xlink="http://www.w3.org/1999/xlink" width="500" zoomAndPan="magnify" viewBox="0 0 375 374.999991" height="500" preserveAspectRatio="xMidYMid meet" version="1.0"><defs><g/><clipPath id="3e4710458c"><path d="M 54.78125 68.265625 L 320.28125 68.265625 L 320.28125 270.765625 L 54.78125 270.765625 Z M 54.78125 68.265625 " clip-rule="nonzero"/></clipPath></defs><rect x="-37.5" width="450" fill="#ffffff" y="-37.499999" height="449.999989" fill-opacity="1"/><rect x="-37.5" width="450" fill="#f6f6f6" y="-37.499999" height="449.999989" fill-opacity="1"/><g clip-path="url(#3e4710458c)"><path fill="#ef9c02" d="M 220.390625 255.847656 L 230.75 262.480469 L 244.179688 270.660156 L 244.179688 179.515625 L 220.15625 163.921875 L 220.15625 226.980469 L 209.957031 220.457031 L 187.5 206.101562 L 154.847656 185.21875 L 149.171875 181.589844 L 130.824219 169.53125 L 130.824219 253.648438 L 144.25 262.480469 L 154.613281 269.460938 L 154.613281 213.789062 L 154.84375 213.933594 L 165.042969 220.457031 L 187.496094 234.816406 L 220.152344 255.699219 Z M 266.773438 175.214844 L 266.773438 238.78125 L 290.566406 223.132812 L 290.566406 190.785156 Z M 185.960938 147.679688 L 185.960938 134.570312 L 172.855469 134.570312 L 172.855469 147.679688 Z M 189.042969 134.578125 L 189.042969 147.683594 L 202.152344 147.683594 L 202.152344 134.578125 Z M 202.15625 150.769531 L 189.042969 150.769531 L 189.042969 163.875 L 202.152344 163.875 L 202.152344 150.769531 Z M 185.960938 163.875 L 185.960938 150.769531 L 172.855469 150.769531 L 172.855469 163.875 Z M 124.425781 138.25 L 187.5 96.960938 L 250.578125 138.25 L 266.539062 148.695312 L 266.769531 148.851562 L 290.570312 164.425781 L 290.800781 164.578125 L 320.222656 183.835938 L 308.289062 176.023438 L 308.289062 147.347656 L 290.800781 135.898438 L 266.773438 120.171875 L 263.714844 118.167969 L 194.070312 72.582031 L 187.5 68.285156 L 180.933594 72.582031 L 111.285156 118.167969 L 108.226562 120.171875 L 108.226562 100.128906 L 84.203125 100.125 L 84.203125 135.902344 L 66.714844 147.351562 L 66.714844 176.03125 L 54.78125 183.84375 L 84.203125 164.582031 L 84.433594 164.429688 L 108.226562 148.859375 Z M 108.226562 175.214844 L 84.433594 190.785156 L 84.433594 223.132812 L 108.226562 238.78125 Z M 108.226562 175.214844 " fill-opacity="1" fill-rule="evenodd"/></g><g fill="#2b2b2b" fill-opacity="1"><g transform="translate(11.169547, 315.730807)"><g><path d="M 29.328125 -24.40625 L 29.328125 0 L 26.859375 0 L 26.859375 -19.53125 L 17.265625 -3.109375 L 16.046875 -3.109375 L 6.453125 -19.421875 L 6.453125 0 L 3.96875 0 L 3.96875 -24.40625 L 6.109375 -24.40625 L 16.703125 -6.3125 L 27.203125 -24.40625 Z M 29.328125 -24.40625 "/></g></g></g><g fill="#2b2b2b" fill-opacity="1"><g transform="translate(48.586759, 315.730807)"><g><path d="M 14.640625 0.203125 C 12.222656 0.203125 10.03125 -0.332031 8.0625 -1.40625 C 6.101562 -2.488281 4.570312 -3.972656 3.46875 -5.859375 C 2.363281 -7.742188 1.8125 -9.859375 1.8125 -12.203125 C 1.8125 -14.554688 2.363281 -16.671875 3.46875 -18.546875 C 4.570312 -20.429688 6.101562 -21.914062 8.0625 -23 C 10.03125 -24.082031 12.222656 -24.625 14.640625 -24.625 C 17.066406 -24.625 19.25 -24.085938 21.1875 -23.015625 C 23.125 -21.941406 24.648438 -20.457031 25.765625 -18.5625 C 26.890625 -16.675781 27.453125 -14.554688 27.453125 -12.203125 C 27.453125 -9.859375 26.890625 -7.738281 25.765625 -5.84375 C 24.648438 -3.945312 23.125 -2.460938 21.1875 -1.390625 C 19.25 -0.328125 17.066406 0.203125 14.640625 0.203125 Z M 14.640625 -2.09375 C 16.578125 -2.09375 18.320312 -2.523438 19.875 -3.390625 C 21.4375 -4.265625 22.65625 -5.472656 23.53125 -7.015625 C 24.414062 -8.566406 24.859375 -10.296875 24.859375 -12.203125 C 24.859375 -14.109375 24.414062 -15.832031 23.53125 -17.375 C 22.65625 -18.925781 21.4375 -20.132812 19.875 -21 C 18.320312 -21.875 16.578125 -22.3125 14.640625 -22.3125 C 12.710938 -22.3125 10.960938 -21.875 9.390625 -21 C 7.828125 -20.132812 6.597656 -18.925781 5.703125 -17.375 C 4.804688 -15.832031 4.359375 -14.109375 4.359375 -12.203125 C 4.359375 -10.296875 4.804688 -8.566406 5.703125 -7.015625 C 6.597656 -5.472656 7.828125 -4.265625 9.390625 -3.390625 C 10.960938 -2.523438 12.710938 -2.09375 14.640625 -2.09375 Z M 14.640625 -2.09375 "/></g></g></g><g fill="#2b2b2b" fill-opacity="1"><g transform="translate(81.958912, 315.730807)"><g><path d="M 3.96875 -24.40625 L 13.921875 -24.40625 C 16.492188 -24.40625 18.769531 -23.890625 20.75 -22.859375 C 22.726562 -21.828125 24.265625 -20.382812 25.359375 -18.53125 C 26.453125 -16.6875 27 -14.578125 27 -12.203125 C 27 -9.835938 26.453125 -7.726562 25.359375 -5.875 C 24.265625 -4.03125 22.726562 -2.585938 20.75 -1.546875 C 18.769531 -0.515625 16.492188 0 13.921875 0 L 3.96875 0 Z M 13.78125 -2.234375 C 15.914062 -2.234375 17.785156 -2.65625 19.390625 -3.5 C 20.992188 -4.351562 22.238281 -5.53125 23.125 -7.03125 C 24.007812 -8.53125 24.453125 -10.253906 24.453125 -12.203125 C 24.453125 -14.160156 24.007812 -15.890625 23.125 -17.390625 C 22.238281 -18.890625 20.992188 -20.0625 19.390625 -20.90625 C 17.785156 -21.757812 15.914062 -22.1875 13.78125 -22.1875 L 6.5625 -22.1875 L 6.5625 -2.234375 Z M 13.78125 -2.234375 "/></g></g></g><g fill="#2b2b2b" fill-opacity="1"><g transform="translate(114.877744, 315.730807)"><g><path d="M 21.234375 -2.234375 L 21.234375 0 L 3.96875 0 L 3.96875 -24.40625 L 20.71875 -24.40625 L 20.71875 -22.1875 L 6.5625 -22.1875 L 6.5625 -13.5 L 19.1875 -13.5 L 19.1875 -11.296875 L 6.5625 -11.296875 L 6.5625 -2.234375 Z M 21.234375 -2.234375 "/></g></g></g><g fill="#2b2b2b" fill-opacity="1"><g transform="translate(142.321794, 315.730807)"><g><path d="M 20.640625 0 L 15.0625 -7.84375 C 14.4375 -7.78125 13.785156 -7.75 13.109375 -7.75 L 6.5625 -7.75 L 6.5625 0 L 3.96875 0 L 3.96875 -24.40625 L 13.109375 -24.40625 C 16.222656 -24.40625 18.664062 -23.660156 20.4375 -22.171875 C 22.207031 -20.691406 23.09375 -18.648438 23.09375 -16.046875 C 23.09375 -14.140625 22.609375 -12.523438 21.640625 -11.203125 C 20.671875 -9.890625 19.289062 -8.945312 17.5 -8.375 L 23.46875 0 Z M 13.046875 -9.9375 C 15.460938 -9.9375 17.304688 -10.46875 18.578125 -11.53125 C 19.859375 -12.601562 20.5 -14.109375 20.5 -16.046875 C 20.5 -18.015625 19.859375 -19.53125 18.578125 -20.59375 C 17.304688 -21.65625 15.460938 -22.1875 13.046875 -22.1875 L 6.5625 -22.1875 L 6.5625 -9.9375 Z M 13.046875 -9.9375 "/></g></g></g><g fill="#2b2b2b" fill-opacity="1"><g transform="translate(171.648891, 315.730807)"><g><path d="M 24.375 -24.40625 L 24.375 0 L 22.25 0 L 6.5625 -19.8125 L 6.5625 0 L 3.96875 0 L 3.96875 -24.40625 L 6.109375 -24.40625 L 21.828125 -4.609375 L 21.828125 -24.40625 Z M 24.375 -24.40625 "/></g></g></g><g fill="#2b2b2b" fill-opacity="1"><g transform="translate(204.11439, 315.730807)"><g/></g></g><g fill="#2b2b2b" fill-opacity="1"><g transform="translate(217.365846, 315.730807)"><g><path d="M 24.375 -24.40625 L 24.375 0 L 21.828125 0 L 21.828125 -11.265625 L 6.5625 -11.265625 L 6.5625 0 L 3.96875 0 L 3.96875 -24.40625 L 6.5625 -24.40625 L 6.5625 -13.53125 L 21.828125 -13.53125 L 21.828125 -24.40625 Z M 24.375 -24.40625 "/></g></g></g><g fill="#2b2b2b" fill-opacity="1"><g transform="translate(249.831345, 315.730807)"><g><path d="M 14.640625 0.203125 C 12.222656 0.203125 10.03125 -0.332031 8.0625 -1.40625 C 6.101562 -2.488281 4.570312 -3.972656 3.46875 -5.859375 C 2.363281 -7.742188 1.8125 -9.859375 1.8125 -12.203125 C 1.8125 -14.554688 2.363281 -16.671875 3.46875 -18.546875 C 4.570312 -20.429688 6.101562 -21.914062 8.0625 -23 C 10.03125 -24.082031 12.222656 -24.625 14.640625 -24.625 C 17.066406 -24.625 19.25 -24.085938 21.1875 -23.015625 C 23.125 -21.941406 24.648438 -20.457031 25.765625 -18.5625 C 26.890625 -16.675781 27.453125 -14.554688 27.453125 -12.203125 C 27.453125 -9.859375 26.890625 -7.738281 25.765625 -5.84375 C 24.648438 -3.945312 23.125 -2.460938 21.1875 -1.390625 C 19.25 -0.328125 17.066406 0.203125 14.640625 0.203125 Z M 14.640625 -2.09375 C 16.578125 -2.09375 18.320312 -2.523438 19.875 -3.390625 C 21.4375 -4.265625 22.65625 -5.472656 23.53125 -7.015625 C 24.414062 -8.566406 24.859375 -10.296875 24.859375 -12.203125 C 24.859375 -14.109375 24.414062 -15.832031 23.53125 -17.375 C 22.65625 -18.925781 21.4375 -20.132812 19.875 -21 C 18.320312 -21.875 16.578125 -22.3125 14.640625 -22.3125 C 12.710938 -22.3125 10.960938 -21.875 9.390625 -21 C 7.828125 -20.132812 6.597656 -18.925781 5.703125 -17.375 C 4.804688 -15.832031 4.359375 -14.109375 4.359375 -12.203125 C 4.359375 -10.296875 4.804688 -8.566406 5.703125 -7.015625 C 6.597656 -5.472656 7.828125 -4.265625 9.390625 -3.390625 C 10.960938 -2.523438 12.710938 -2.09375 14.640625 -2.09375 Z M 14.640625 -2.09375 "/></g></g></g><g fill="#2b2b2b" fill-opacity="1"><g transform="translate(283.2035, 315.730807)"><g><path d="M 13.8125 0.203125 C 10.644531 0.203125 8.175781 -0.703125 6.40625 -2.515625 C 4.644531 -4.328125 3.765625 -6.960938 3.765625 -10.421875 L 3.765625 -24.40625 L 6.34375 -24.40625 L 6.34375 -10.53125 C 6.34375 -7.695312 6.984375 -5.582031 8.265625 -4.1875 C 9.546875 -2.789062 11.394531 -2.09375 13.8125 -2.09375 C 16.25 -2.09375 18.109375 -2.789062 19.390625 -4.1875 C 20.671875 -5.582031 21.3125 -7.695312 21.3125 -10.53125 L 21.3125 -24.40625 L 23.8125 -24.40625 L 23.8125 -10.421875 C 23.8125 -6.960938 22.929688 -4.328125 21.171875 -2.515625 C 19.421875 -0.703125 16.96875 0.203125 13.8125 0.203125 Z M 13.8125 0.203125 "/></g></g></g><g fill="#2b2b2b" fill-opacity="1"><g transform="translate(314.936714, 315.730807)"><g><path d="M 10.703125 0.203125 C 8.890625 0.203125 7.148438 -0.0820312 5.484375 -0.65625 C 3.828125 -1.238281 2.546875 -2.007812 1.640625 -2.96875 L 2.65625 -4.953125 C 3.53125 -4.066406 4.703125 -3.347656 6.171875 -2.796875 C 7.640625 -2.253906 9.148438 -1.984375 10.703125 -1.984375 C 12.890625 -1.984375 14.53125 -2.382812 15.625 -3.1875 C 16.71875 -3.988281 17.265625 -5.03125 17.265625 -6.3125 C 17.265625 -7.289062 16.96875 -8.066406 16.375 -8.640625 C 15.78125 -9.222656 15.050781 -9.671875 14.1875 -9.984375 C 13.332031 -10.304688 12.140625 -10.648438 10.609375 -11.015625 C 8.765625 -11.484375 7.296875 -11.929688 6.203125 -12.359375 C 5.109375 -12.796875 4.171875 -13.453125 3.390625 -14.328125 C 2.617188 -15.210938 2.234375 -16.410156 2.234375 -17.921875 C 2.234375 -19.160156 2.554688 -20.285156 3.203125 -21.296875 C 3.859375 -22.304688 4.859375 -23.113281 6.203125 -23.71875 C 7.554688 -24.320312 9.234375 -24.625 11.234375 -24.625 C 12.628906 -24.625 13.992188 -24.429688 15.328125 -24.046875 C 16.660156 -23.660156 17.816406 -23.128906 18.796875 -22.453125 L 17.921875 -20.40625 C 16.898438 -21.070312 15.804688 -21.570312 14.640625 -21.90625 C 13.484375 -22.25 12.347656 -22.421875 11.234375 -22.421875 C 9.085938 -22.421875 7.472656 -22.007812 6.390625 -21.1875 C 5.316406 -20.363281 4.78125 -19.300781 4.78125 -18 C 4.78125 -17.019531 5.078125 -16.234375 5.671875 -15.640625 C 6.265625 -15.046875 7.003906 -14.59375 7.890625 -14.28125 C 8.785156 -13.96875 9.992188 -13.625 11.515625 -13.25 C 13.296875 -12.8125 14.738281 -12.375 15.84375 -11.9375 C 16.945312 -11.507812 17.882812 -10.859375 18.65625 -9.984375 C 19.425781 -9.117188 19.8125 -7.941406 19.8125 -6.453125 C 19.8125 -5.222656 19.476562 -4.097656 18.8125 -3.078125 C 18.15625 -2.066406 17.140625 -1.265625 15.765625 -0.671875 C 14.390625 -0.0859375 12.703125 0.203125 10.703125 0.203125 Z M 10.703125 0.203125 "/></g></g></g><g fill="#2b2b2b" fill-opacity="1"><g transform="translate(340.497708, 315.730807)"><g><path d="M 21.234375 -2.234375 L 21.234375 0 L 3.96875 0 L 3.96875 -24.40625 L 20.71875 -24.40625 L 20.71875 -22.1875 L 6.5625 -22.1875 L 6.5625 -13.5 L 19.1875 -13.5 L 19.1875 -11.296875 L 6.5625 -11.296875 L 6.5625 -2.234375 Z M 21.234375 -2.234375 "/></g></g></g><g fill="#b38f4b" fill-opacity="0.4"><g transform="translate(54.476415, 334.864848)"><g><path d="M 6.078125 0 L 4.625 -2.40625 C 4.550781 -2.394531 4.429688 -2.390625 4.265625 -2.390625 L 2.375 -2.390625 L 2.375 0 L 1.046875 0 L 1.046875 -7.9375 L 4.265625 -7.9375 C 5.273438 -7.9375 6.054688 -7.695312 6.609375 -7.21875 C 7.171875 -6.75 7.453125 -6.082031 7.453125 -5.21875 C 7.453125 -4.582031 7.3125 -4.046875 7.03125 -3.609375 C 6.75 -3.171875 6.34375 -2.851562 5.8125 -2.65625 L 7.59375 0 Z M 2.375 -3.59375 L 4.265625 -3.59375 C 5.546875 -3.59375 6.1875 -4.125 6.1875 -5.1875 C 6.1875 -6.21875 5.546875 -6.734375 4.265625 -6.734375 L 2.375 -6.734375 Z M 2.375 -3.59375 "/></g></g></g><g fill="#b38f4b" fill-opacity="0.4"><g transform="translate(71.740427, 334.864848)"><g><path d="M 6.703125 -6.734375 L 2.375 -6.734375 L 2.375 -4.59375 L 6.25 -4.59375 L 6.25 -3.390625 L 2.375 -3.390625 L 2.375 -1.203125 L 6.84375 -1.203125 L 6.84375 0 L 1.046875 0 L 1.046875 -7.9375 L 6.703125 -7.9375 Z M 6.703125 -6.734375 "/></g></g></g><g fill="#b38f4b" fill-opacity="0.4"><g transform="translate(88.244959, 334.864848)"><g><path d="M 6.15625 -1.796875 L 2.15625 -1.796875 L 1.40625 0 L 0.015625 0 L 3.515625 -7.9375 L 4.875 -7.9375 L 8.34375 0 L 6.921875 0 Z M 5.65625 -2.984375 L 4.15625 -6.5 L 2.65625 -2.984375 Z M 5.65625 -2.984375 "/></g></g></g><g fill="#b38f4b" fill-opacity="0.4"><g transform="translate(105.679013, 334.864848)"><g><path d="M 2.375 -1.21875 L 5.8125 -1.21875 L 5.8125 0 L 1.046875 0 L 1.046875 -7.9375 L 2.375 -7.9375 Z M 2.375 -1.21875 "/></g></g></g><g fill="#b38f4b" fill-opacity="0.4"><g transform="translate(120.800609, 334.864848)"><g/></g></g><g fill="#2b2b2b" fill-opacity="1"><g transform="translate(54.476415, 334.864848)"><g><path d="M 6.078125 0 L 4.625 -2.40625 C 4.550781 -2.394531 4.429688 -2.390625 4.265625 -2.390625 L 2.375 -2.390625 L 2.375 0 L 1.046875 0 L 1.046875 -7.9375 L 4.265625 -7.9375 C 5.273438 -7.9375 6.054688 -7.695312 6.609375 -7.21875 C 7.171875 -6.75 7.453125 -6.082031 7.453125 -5.21875 C 7.453125 -4.582031 7.3125 -4.046875 7.03125 -3.609375 C 6.75 -3.171875 6.34375 -2.851562 5.8125 -2.65625 L 7.59375 0 Z M 2.375 -3.59375 L 4.265625 -3.59375 C 5.546875 -3.59375 6.1875 -4.125 6.1875 -5.1875 C 6.1875 -6.21875 5.546875 -6.734375 4.265625 -6.734375 L 2.375 -6.734375 Z M 2.375 -3.59375 "/></g></g></g><g fill="#2b2b2b" fill-opacity="1"><g transform="translate(71.740427, 334.864848)"><g><path d="M 6.703125 -6.734375 L 2.375 -6.734375 L 2.375 -4.59375 L 6.25 -4.59375 L 6.25 -3.390625 L 2.375 -3.390625 L 2.375 -1.203125 L 6.84375 -1.203125 L 6.84375 0 L 1.046875 0 L 1.046875 -7.9375 L 6.703125 -7.9375 Z M 6.703125 -6.734375 "/></g></g></g><g fill="#2b2b2b" fill-opacity="1"><g transform="translate(88.244959, 334.864848)"><g><path d="M 6.15625 -1.796875 L 2.15625 -1.796875 L 1.40625 0 L 0.015625 0 L 3.515625 -7.9375 L 4.875 -7.9375 L 8.34375 0 L 6.921875 0 Z M 5.65625 -2.984375 L 4.15625 -6.5 L 2.65625 -2.984375 Z M 5.65625 -2.984375 "/></g></g></g><g fill="#2b2b2b" fill-opacity="1"><g transform="translate(105.679013, 334.864848)"><g><path d="M 2.375 -1.21875 L 5.8125 -1.21875 L 5.8125 0 L 1.046875 0 L 1.046875 -7.9375 L 2.375 -7.9375 Z M 2.375 -1.21875 "/></g></g></g><g fill="#2b2b2b" fill-opacity="1"><g transform="translate(120.800609, 334.864848)"><g/></g></g><g fill="#b38f4b" fill-opacity="0.4"><g transform="translate(132.806456, 334.864848)"><g><path d="M 7 -6.34375 L 2.8125 -6.34375 L 2.8125 -4.765625 L 6.59375 -4.765625 L 6.59375 -3.1875 L 2.8125 -3.1875 L 2.8125 -1.59375 L 7.125 -1.59375 L 7.125 0 L 0.796875 0 L 0.796875 -7.9375 L 7 -7.9375 Z M 7 -6.34375 "/></g></g></g><g fill="#b38f4b" fill-opacity="0.4"><g transform="translate(149.515032, 334.864848)"><g><path d="M 3.84375 -8.015625 C 5.03125 -8.015625 6.070312 -7.722656 6.96875 -7.140625 L 6.203125 -5.5625 C 5.785156 -5.800781 5.335938 -6 4.859375 -6.15625 C 4.390625 -6.3125 3.992188 -6.390625 3.671875 -6.390625 C 3.085938 -6.390625 2.796875 -6.195312 2.796875 -5.8125 C 2.796875 -5.5625 2.9375 -5.359375 3.21875 -5.203125 C 3.507812 -5.054688 3.859375 -4.925781 4.265625 -4.8125 C 4.679688 -4.707031 5.09375 -4.578125 5.5 -4.421875 C 5.914062 -4.265625 6.265625 -4.015625 6.546875 -3.671875 C 6.835938 -3.328125 6.984375 -2.890625 6.984375 -2.359375 C 6.984375 -1.597656 6.6875 -1.003906 6.09375 -0.578125 C 5.5 -0.148438 4.738281 0.0625 3.8125 0.0625 C 3.15625 0.0625 2.503906 -0.046875 1.859375 -0.265625 C 1.222656 -0.492188 0.664062 -0.804688 0.1875 -1.203125 L 0.96875 -2.75 C 1.375 -2.40625 1.847656 -2.117188 2.390625 -1.890625 C 2.929688 -1.671875 3.414062 -1.5625 3.84375 -1.5625 C 4.164062 -1.5625 4.414062 -1.617188 4.59375 -1.734375 C 4.78125 -1.859375 4.875 -2.03125 4.875 -2.25 C 4.875 -2.46875 4.769531 -2.648438 4.5625 -2.796875 C 4.351562 -2.953125 4.09375 -3.0625 3.78125 -3.125 C 3.46875 -3.195312 3.128906 -3.296875 2.765625 -3.421875 C 2.410156 -3.546875 2.078125 -3.675781 1.765625 -3.8125 C 1.453125 -3.957031 1.191406 -4.1875 0.984375 -4.5 C 0.785156 -4.8125 0.6875 -5.1875 0.6875 -5.625 C 0.6875 -6.351562 0.972656 -6.929688 1.546875 -7.359375 C 2.117188 -7.796875 2.882812 -8.015625 3.84375 -8.015625 Z M 3.84375 -8.015625 "/></g></g></g><g fill="#b38f4b" fill-opacity="0.4"><g transform="translate(165.883541, 334.864848)"><g><path d="M 6.859375 -6.3125 L 4.46875 -6.3125 L 4.46875 0 L 2.453125 0 L 2.453125 -6.3125 L 0.078125 -6.3125 L 0.078125 -7.9375 L 6.859375 -7.9375 Z M 6.859375 -6.3125 "/></g></g></g><g fill="#b38f4b" fill-opacity="0.4"><g transform="translate(181.877971, 334.864848)"><g><path d="M 6.0625 -1.46875 L 2.59375 -1.46875 L 2.015625 0 L -0.0625 0 L 3.359375 -7.9375 L 5.4375 -7.9375 L 8.78125 0 L 6.625 0 Z M 5.46875 -2.984375 L 4.34375 -5.921875 L 3.1875 -2.984375 Z M 5.46875 -2.984375 "/></g></g></g><g fill="#b38f4b" fill-opacity="0.4"><g transform="translate(199.674759, 334.864848)"><g><path d="M 6.859375 -6.3125 L 4.46875 -6.3125 L 4.46875 0 L 2.453125 0 L 2.453125 -6.3125 L 0.078125 -6.3125 L 0.078125 -7.9375 L 6.859375 -7.9375 Z M 6.859375 -6.3125 "/></g></g></g><g fill="#b38f4b" fill-opacity="0.4"><g transform="translate(215.669185, 334.864848)"><g><path d="M 7 -6.34375 L 2.8125 -6.34375 L 2.8125 -4.765625 L 6.59375 -4.765625 L 6.59375 -3.1875 L 2.8125 -3.1875 L 2.8125 -1.59375 L 7.125 -1.59375 L 7.125 0 L 0.796875 0 L 0.796875 -7.9375 L 7 -7.9375 Z M 7 -6.34375 "/></g></g></g><g fill="#ef9c02" fill-opacity="1"><g transform="translate(132.806456, 334.864848)"><g><path d="M 7 -6.34375 L 2.8125 -6.34375 L 2.8125 -4.765625 L 6.59375 -4.765625 L 6.59375 -3.1875 L 2.8125 -3.1875 L 2.8125 -1.59375 L 7.125 -1.59375 L 7.125 0 L 0.796875 0 L 0.796875 -7.9375 L 7 -7.9375 Z M 7 -6.34375 "/></g></g></g><g fill="#ef9c02" fill-opacity="1"><g transform="translate(149.515032, 334.864848)"><g><path d="M 3.84375 -8.015625 C 5.03125 -8.015625 6.070312 -7.722656 6.96875 -7.140625 L 6.203125 -5.5625 C 5.785156 -5.800781 5.335938 -6 4.859375 -6.15625 C 4.390625 -6.3125 3.992188 -6.390625 3.671875 -6.390625 C 3.085938 -6.390625 2.796875 -6.195312 2.796875 -5.8125 C 2.796875 -5.5625 2.9375 -5.359375 3.21875 -5.203125 C 3.507812 -5.054688 3.859375 -4.925781 4.265625 -4.8125 C 4.679688 -4.707031 5.09375 -4.578125 5.5 -4.421875 C 5.914062 -4.265625 6.265625 -4.015625 6.546875 -3.671875 C 6.835938 -3.328125 6.984375 -2.890625 6.984375 -2.359375 C 6.984375 -1.597656 6.6875 -1.003906 6.09375 -0.578125 C 5.5 -0.148438 4.738281 0.0625 3.8125 0.0625 C 3.15625 0.0625 2.503906 -0.046875 1.859375 -0.265625 C 1.222656 -0.492188 0.664062 -0.804688 0.1875 -1.203125 L 0.96875 -2.75 C 1.375 -2.40625 1.847656 -2.117188 2.390625 -1.890625 C 2.929688 -1.671875 3.414062 -1.5625 3.84375 -1.5625 C 4.164062 -1.5625 4.414062 -1.617188 4.59375 -1.734375 C 4.78125 -1.859375 4.875 -2.03125 4.875 -2.25 C 4.875 -2.46875 4.769531 -2.648438 4.5625 -2.796875 C 4.351562 -2.953125 4.09375 -3.0625 3.78125 -3.125 C 3.46875 -3.195312 3.128906 -3.296875 2.765625 -3.421875 C 2.410156 -3.546875 2.078125 -3.675781 1.765625 -3.8125 C 1.453125 -3.957031 1.191406 -4.1875 0.984375 -4.5 C 0.785156 -4.8125 0.6875 -5.1875 0.6875 -5.625 C 0.6875 -6.351562 0.972656 -6.929688 1.546875 -7.359375 C 2.117188 -7.796875 2.882812 -8.015625 3.84375 -8.015625 Z M 3.84375 -8.015625 "/></g></g></g><g fill="#ef9c02" fill-opacity="1"><g transform="translate(165.883541, 334.864848)"><g><path d="M 6.859375 -6.3125 L 4.46875 -6.3125 L 4.46875 0 L 2.453125 0 L 2.453125 -6.3125 L 0.078125 -6.3125 L 0.078125 -7.9375 L 6.859375 -7.9375 Z M 6.859375 -6.3125 "/></g></g></g><g fill="#ef9c02" fill-opacity="1"><g transform="translate(181.877971, 334.864848)"><g><path d="M 6.0625 -1.46875 L 2.59375 -1.46875 L 2.015625 0 L -0.0625 0 L 3.359375 -7.9375 L 5.4375 -7.9375 L 8.78125 0 L 6.625 0 Z M 5.46875 -2.984375 L 4.34375 -5.921875 L 3.1875 -2.984375 Z M 5.46875 -2.984375 "/></g></g></g><g fill="#ef9c02" fill-opacity="1"><g transform="translate(199.674759, 334.864848)"><g><path d="M 6.859375 -6.3125 L 4.46875 -6.3125 L 4.46875 0 L 2.453125 0 L 2.453125 -6.3125 L 0.078125 -6.3125 L 0.078125 -7.9375 L 6.859375 -7.9375 Z M 6.859375 -6.3125 "/></g></g></g><g fill="#ef9c02" fill-opacity="1"><g transform="translate(215.669185, 334.864848)"><g><path d="M 7 -6.34375 L 2.8125 -6.34375 L 2.8125 -4.765625 L 6.59375 -4.765625 L 6.59375 -3.1875 L 2.8125 -3.1875 L 2.8125 -1.59375 L 7.125 -1.59375 L 7.125 0 L 0.796875 0 L 0.796875 -7.9375 L 7 -7.9375 Z M 7 -6.34375 "/></g></g></g><g fill="#b38f4b" fill-opacity="0.4"><g transform="translate(232.390555, 334.864848)"><g/></g></g><g fill="#b38f4b" fill-opacity="0.4"><g transform="translate(244.383531, 334.864848)"><g><path d="M 6.15625 -1.796875 L 2.15625 -1.796875 L 1.40625 0 L 0.015625 0 L 3.515625 -7.9375 L 4.875 -7.9375 L 8.34375 0 L 6.921875 0 Z M 5.65625 -2.984375 L 4.15625 -6.5 L 2.65625 -2.984375 Z M 5.65625 -2.984375 "/></g></g></g><g fill="#b38f4b" fill-opacity="0.4"><g transform="translate(261.817583, 334.864848)"><g><path d="M 6.46875 -3.890625 L 7.640625 -3.890625 L 7.640625 -0.96875 C 7.234375 -0.664062 6.75 -0.414062 6.1875 -0.21875 C 5.632812 -0.03125 5.085938 0.0625 4.546875 0.0625 C 3.378906 0.0625 2.394531 -0.320312 1.59375 -1.09375 C 0.789062 -1.875 0.390625 -2.832031 0.390625 -3.96875 C 0.390625 -5.101562 0.796875 -6.050781 1.609375 -6.8125 C 2.421875 -7.582031 3.429688 -7.96875 4.640625 -7.96875 C 5.191406 -7.96875 5.738281 -7.863281 6.28125 -7.65625 C 6.820312 -7.457031 7.289062 -7.191406 7.6875 -6.859375 L 6.921875 -5.875 C 6.273438 -6.476562 5.515625 -6.78125 4.640625 -6.78125 C 3.828125 -6.78125 3.140625 -6.503906 2.578125 -5.953125 C 2.023438 -5.410156 1.75 -4.75 1.75 -3.96875 C 1.75 -3.175781 2.03125 -2.503906 2.59375 -1.953125 C 3.15625 -1.410156 3.835938 -1.140625 4.640625 -1.140625 C 5.253906 -1.140625 5.863281 -1.320312 6.46875 -1.6875 Z M 6.46875 -3.890625 "/></g></g></g><g fill="#b38f4b" fill-opacity="0.4"><g transform="translate(279.376331, 334.864848)"><g><path d="M 6.703125 -6.734375 L 2.375 -6.734375 L 2.375 -4.59375 L 6.25 -4.59375 L 6.25 -3.390625 L 2.375 -3.390625 L 2.375 -1.203125 L 6.84375 -1.203125 L 6.84375 0 L 1.046875 0 L 1.046875 -7.9375 L 6.703125 -7.9375 Z M 6.703125 -6.734375 "/></g></g></g><g fill="#b38f4b" fill-opacity="0.4"><g transform="translate(295.880862, 334.864848)"><g><path d="M 7.921875 0 L 6.609375 0 L 2.375 -5.6875 L 2.375 0 L 1.046875 0 L 1.046875 -7.9375 L 2.359375 -7.9375 L 6.609375 -2.234375 L 6.609375 -7.9375 L 7.921875 -7.9375 Z M 7.921875 0 "/></g></g></g><g fill="#b38f4b" fill-opacity="0.4"><g transform="translate(313.927039, 334.864848)"><g><path d="M 6.453125 -6.734375 L 3.9375 -6.734375 L 3.9375 0 L 2.609375 0 L 2.609375 -6.734375 L 0.109375 -6.734375 L 0.109375 -7.9375 L 6.453125 -7.9375 Z M 6.453125 -6.734375 "/></g></g></g><g fill="#2b2b2b" fill-opacity="1"><g transform="translate(232.390555, 334.864848)"><g/></g></g><g fill="#2b2b2b" fill-opacity="1"><g transform="translate(244.383531, 334.864848)"><g><path d="M 6.15625 -1.796875 L 2.15625 -1.796875 L 1.40625 0 L 0.015625 0 L 3.515625 -7.9375 L 4.875 -7.9375 L 8.34375 0 L 6.921875 0 Z M 5.65625 -2.984375 L 4.15625 -6.5 L 2.65625 -2.984375 Z M 5.65625 -2.984375 "/></g></g></g><g fill="#2b2b2b" fill-opacity="1"><g transform="translate(261.817583, 334.864848)"><g><path d="M 6.46875 -3.890625 L 7.640625 -3.890625 L 7.640625 -0.96875 C 7.234375 -0.664062 6.75 -0.414062 6.1875 -0.21875 C 5.632812 -0.03125 5.085938 0.0625 4.546875 0.0625 C 3.378906 0.0625 2.394531 -0.320312 1.59375 -1.09375 C 0.789062 -1.875 0.390625 -2.832031 0.390625 -3.96875 C 0.390625 -5.101562 0.796875 -6.050781 1.609375 -6.8125 C 2.421875 -7.582031 3.429688 -7.96875 4.640625 -7.96875 C 5.191406 -7.96875 5.738281 -7.863281 6.28125 -7.65625 C 6.820312 -7.457031 7.289062 -7.191406 7.6875 -6.859375 L 6.921875 -5.875 C 6.273438 -6.476562 5.515625 -6.78125 4.640625 -6.78125 C 3.828125 -6.78125 3.140625 -6.503906 2.578125 -5.953125 C 2.023438 -5.410156 1.75 -4.75 1.75 -3.96875 C 1.75 -3.175781 2.03125 -2.503906 2.59375 -1.953125 C 3.15625 -1.410156 3.835938 -1.140625 4.640625 -1.140625 C 5.253906 -1.140625 5.863281 -1.320312 6.46875 -1.6875 Z M 6.46875 -3.890625 "/></g></g></g><g fill="#2b2b2b" fill-opacity="1"><g transform="translate(279.376331, 334.864848)"><g><path d="M 6.703125 -6.734375 L 2.375 -6.734375 L 2.375 -4.59375 L 6.25 -4.59375 L 6.25 -3.390625 L 2.375 -3.390625 L 2.375 -1.203125 L 6.84375 -1.203125 L 6.84375 0 L 1.046875 0 L 1.046875 -7.9375 L 6.703125 -7.9375 Z M 6.703125 -6.734375 "/></g></g></g><g fill="#2b2b2b" fill-opacity="1"><g transform="translate(295.880862, 334.864848)"><g><path d="M 7.921875 0 L 6.609375 0 L 2.375 -5.6875 L 2.375 0 L 1.046875 0 L 1.046875 -7.9375 L 2.359375 -7.9375 L 6.609375 -2.234375 L 6.609375 -7.9375 L 7.921875 -7.9375 Z M 7.921875 0 "/></g></g></g><g fill="#2b2b2b" fill-opacity="1"><g transform="translate(313.927039, 334.864848)"><g><path d="M 6.453125 -6.734375 L 3.9375 -6.734375 L 3.9375 0 L 2.609375 0 L 2.609375 -6.734375 L 0.109375 -6.734375 L 0.109375 -7.9375 L 6.453125 -7.9375 Z M 6.453125 -6.734375 "/></g></g></g></svg>