<svg xmlns="http://www.w3.org/2000/svg" xmlns:xlink="http://www.w3.org/1999/xlink" width="500" zoomAndPan="magnify" viewBox="0 0 375 374.999991" height="500" preserveAspectRatio="xMidYMid meet" version="1.0"><defs><clipPath id="554470ef92"><path d="M 0 44.53125 L 375 44.53125 L 375 344.53125 L 0 344.53125 Z M 0 44.53125 " clip-rule="nonzero"/></clipPath></defs><g clip-path="url(#554470ef92)"><path fill="#ef9c02" d="M 236.40625 322.769531 L 251.777344 332.609375 L 271.699219 344.746094 L 271.699219 209.546875 L 236.058594 186.414062 L 236.058594 279.953125 L 220.933594 270.28125 L 187.625 248.980469 L 139.1875 218.003906 L 130.769531 212.625 L 103.554688 194.734375 L 103.554688 319.507812 L 123.46875 332.609375 L 138.839844 342.964844 L 138.839844 260.382812 L 139.179688 260.601562 L 154.308594 270.28125 L 187.617188 291.578125 L 236.054688 322.554688 Z M 305.210938 203.167969 L 305.210938 297.457031 L 340.503906 274.246094 L 340.503906 226.265625 Z M 185.34375 162.328125 L 185.34375 142.882812 L 165.898438 142.882812 L 165.898438 162.328125 Z M 189.910156 142.890625 L 189.910156 162.332031 L 209.355469 162.332031 L 209.355469 142.890625 Z M 209.363281 166.910156 L 189.910156 166.910156 L 189.910156 186.347656 L 209.355469 186.347656 L 209.355469 166.910156 Z M 185.34375 186.347656 L 185.34375 166.910156 L 165.898438 166.910156 L 165.898438 186.347656 Z M 94.0625 148.339844 L 187.625 87.09375 L 281.1875 148.339844 L 304.863281 163.832031 L 305.207031 164.0625 L 340.507812 187.164062 L 340.851562 187.386719 L 384.492188 215.960938 L 366.792969 204.371094 L 366.792969 161.832031 L 340.851562 144.847656 L 305.210938 121.523438 L 300.671875 118.554688 L 197.371094 50.933594 L 187.625 44.558594 L 177.882812 50.933594 L 74.574219 118.554688 L 70.035156 121.523438 L 70.035156 91.792969 L 34.402344 91.789062 L 34.402344 144.855469 L 8.460938 161.835938 L 8.460938 204.378906 L -9.238281 215.964844 L 34.402344 187.394531 L 34.746094 187.171875 L 70.035156 164.074219 Z M 70.035156 203.167969 L 34.746094 226.265625 L 34.746094 274.246094 L 70.035156 297.457031 Z M 70.035156 203.167969 " fill-opacity="1" fill-rule="evenodd"/></g></svg>